<mxfile host="app.diagrams.net" modified="2023-02-14T02:46:53.201Z" agent="5.0 (Windows NT 10.0; Win64; x64) AppleWebKit/537.36 (KHTML, like Gecko) Chrome/109.0.0.0 Safari/537.36" etag="LEfBztWASg6jkhB9zyDj" version="20.8.20" type="github">
  <diagram name="페이지-1" id="ZGIvvKyqLIBgwAblGsse">
    <mxGraphModel dx="2394" dy="1233" grid="1" gridSize="10" guides="1" tooltips="1" connect="1" arrows="1" fold="1" page="1" pageScale="1" pageWidth="827" pageHeight="1169" math="0" shadow="0">
      <root>
        <mxCell id="0" />
        <mxCell id="1" parent="0" />
        <mxCell id="d72VBFYSwYj0vfxk-ziA-3" value="" style="rounded=0;whiteSpace=wrap;html=1;" vertex="1" parent="1">
          <mxGeometry x="30" y="60" width="970" height="1140" as="geometry" />
        </mxCell>
        <mxCell id="d72VBFYSwYj0vfxk-ziA-4" value="&lt;font style=&quot;font-size: 36px;&quot;&gt;ST에 오신 것을 환영합니다!&lt;/font&gt;" style="rounded=0;whiteSpace=wrap;html=1;" vertex="1" parent="1">
          <mxGeometry x="169" y="140" width="606" height="90" as="geometry" />
        </mxCell>
        <mxCell id="d72VBFYSwYj0vfxk-ziA-5" value="" style="shape=image;verticalLabelPosition=bottom;labelBackgroundColor=default;verticalAlign=top;aspect=fixed;imageAspect=0;image=data:image/png,iVBORw0KGgoAAAANSUhEUgAAAGEAAABJCAYAAAAt+Uj4AAAAAXNSR0IArs4c6QAAAARnQU1BAACxjwv8YQUAAAAJcEhZcwAAFxEAABcRAcom8z8AADxcSURBVHhehZ3nd53Xdeb5d8yHcVYmyThxZrJWMolj2YksWa6SVW01y6qU2HvvvZMgCZAECBAdBIlCohMAQTSi90oA7L2pUXJJPu55fvu8LwApa9Z82Ou99wK4uNjPeZ5dzj4vZvzLrGz7/pxc+8Hck/bU/Hz70YLT9m+LCuzZZcX2wpoS+93WSpu5u8Y+2Vtrc/bX2cJD9bb4cKMtTmy0FSkttiGjwzZldtr69A5bmdJma0+026rUdlt5vN1W67ruRIdt1Ne35XTZ3tO9lnim346XD1lm9SXLkqVXjtiJymFLrxqyjHPDwaqGLUvXbFkOVj1suTUjllc7avl1o1bUOG7FTZetsGHCTtWN2Um9nqev59aMWnb1iH4Oi99Dj/VaRtWIpZUPy4b0O/X7KvS16lH9zCXLO3/J3+f0hXEZ1zF/L74ntszKIb0XxmfStWpQxvNBPedxsKyqAcuqHLDMiv5Jy6rss5yKPsuu6JX1WFZZsMzSbsso7bQZ35+TEwFwyn64EAAK7eklxfbjZWfsZytL7M3NVTZTAMwWAHMT6m2RAFggm32w0RYmNdk6OX9bbrdtye62VXL8+owuAdFpi4612pJjbbYqrdPW6PkagbEho9MOFvVbqv6oLP3xObXjcnoAAie5ndMfLxAAAwcGAOTk2kt2MnJWQcNlATFhBfUTln9+zMEBJDd9f46cPvl80kYFyohl8jv89+k99bOn5PjYACFf759XO+af5XjZUACNz6uf5b1za8KiyGKhCAQA+QYIlYNyvECIgACA7Kp+y67st5yqAEaOg9E7CcSMH8zNs6cWiAERAP++uMieEQDPLi+x51aW2q/XVdg7O6rt430XbM7BBluY2GRzEpoEQpMtOtIih3fY1hyBkNNjK4532Gqcnt5lC4+22oIjbbYspVOvd9rS5DYH42DxoKXJCdkCILduwhlxQn9wupzP9YS+BiiZ+qOztFJzZDj5pByG5dfhsAk7DQByGAY4gISz8xwwfT+sOc/PYQFAvidHX88U8BjvU9R4xRkFsA6q3j8bhsrxabAgAmzyc0SAZzsIWigRGJk4X2zJqBh0gw2AknNuYMoERq6Mq4MSASEQ8gXCqUkAfiwWPLvsrD23otR+tqrcfrGm0l7deM7e33PBZiU02vzEZpstEGbub7IFSa1iQpdA6LVteb22PrNbAHTa2oxuW5rSYQuOttvsQ602N7Hd5idJolI7LEEgHCuXNFTJETVjAmTUUvWHpnLVH40BRKZAyZLDsmW5EQtOnmelyuS8kwIwZgfg8DiAhY04APn6Wn4dFsDyVa7vzaoe0/uKUXL6meYrdvbiVStxu2alLdf12lU7pa/liBGABQhZ+jzhdwA2oEzJXqaDECwGIWZGAGAKjFxZHmAAQmWQpxk/lAz9aGGB/ZsAQIYA4CcC4LmVZfaz1QJhbZX9en21vbHtvL27q97e29NgHyc028wDzTb3cIsc2ynN77EdJ/ts1+kB25LbZ+syeiRDXWJCu31yqM1mJrTZRwlixlFJ18l+21c4KEYMC4xLllgyYkfLRP0KQJABEKsvihlYtpyWK4fkCgR3/oXLcuKEOxIQYjZwPSWnT1qk78HG5fQgNzn8nN4HZ5e2XncDDEAob71hJS3XFHOu6HsnHDBAYFEANnKIBIY4BCu0UBwMMVesAAiYQfzIrR78L5aHORgRKyRXM0IgVhxYWmzPLI1lqMx+ugoQKsWEavvlump7aWOtvbWjwV7fXm9v7mywd/c028cHL9q8pDZbLiDWCwgcvD0/ALFWQCxJ6bLZYsF7+1vtrd0X7d29rQ7KkuRO23lq0PYWDNn2kwO25zTsGA1AiBEn+KMBQM7KlBMwnI585cGC+ssCRM8FSqznAYDI3OmX3GKtL6gfk+zosYA4JTYhQzjfnS7nxyDAijMK+gEESaY+A5atGMbPASTm8QMWAoYMuYqZgRE/8hQ/8mqGglVjg5ZfM2gnq8UGzIEABLHAZUgAPDPJgnKBUGE/X1MlJlTbr9bX2PPrz9tvttULhAZ7bVuDvbmryT5MAIR2OVux4ESXpKjb1gkMB0FXQJgjEN7f3yYQWuy3Oy/aG7su2syDkrGsPtt9etg26Apg+4uGLKVCWnxOKy8CYAoEgrj0Wgw4KRDy6684EMgSWj49PjgY7vjAgPgxABDMMTIr5KdM0lOmVV/KY6QoliUkSlakWIGzeY8QjwLIcQDHAOC/ggALvgWCm1gACBEQmIMAC4gDAAALAAEAfrZaAKw5JwAEwoZa+/WmOntta4P9RiC8ur3RXt/ZZO/tu2hzJTnLFHhXC4CVkqA1igebc/v1vEfBuUsrv90+ONBub8YgiBGzkzpsWWqPrc7os5UnegRYr23O6bPEUslQzbhlKWgTuDHiRpZey9PKz2/Q6pxmpwQEIMRMiAH4hkWrNoBw2Ve8r3pJUbmYUNYanB9M7JCVyM6ICQDm7AFMvXeIPyEGeWo7GSNCBhbiRMjOyKAA4WStbJINQY5iAGADGZOD8DQscABK7KceC2IWCIQNNQLgvL20uc5e2XLBXhEQ2KvbGu1tSdKsw622OLnDVp3odmduyO6zzXn9tj6rV+D0uBx9eBAQWu31XS1iQote6xR4XfrZDluU3GXL0wjoPbbr1IAlS5JixwfTY4GRIxCIBadwfuNVO91w1ZlBAHUmyNHYdAAAha8VaEUXNU1odV+edDgMqGi77lbWEgAo0df5nmJ9b8yaIoHg2ZPeJyQAAYAc2KnVHx5PMYFUlmsAYcRBAACcnh8BEEvRpBzFUjTFgvIQCwTAL9fVuBS9sPG8/VogvLi53l7aIhAEwMtbm+wtgYDcLDja6UF3seRnBQ6VvADC8tRum5vUaR8d7ND3CgSx4A2B8c7eNnv/gAK2wAGExce7xIhugTAoNiguKHNKR4aQo9hgRbUcq9Vf2HTVChyIwAYcjU0HIJYRXncGaGXjbJxeKatqD1YpK59kAzJEDSLWuPOnJKzQY4nY5kCQLMjprPwoS8pUUE6vCHUIRWIAYZoUyfHTGfCNmPD04kiKiAUrxAKB8HOlpcQCQHh+w3l7HhA2XZgE4aWtgNAYQJC0zDmsVDSxTatbaemxTgcDmVl6vFuvd9gHCUGO3pC9KTDeFgi/3yeZUtY0XwAuEWNWiQkE9YNnyJSUulYRGwILMsUIDGac1Oovbr6mlX3NCiMgTitGxCs+vsaxgitBFq0HgKqOG1bdKeMqA4iKNmVFmIOBXAXHn1YwJ7h7UI8eE4x99UdpKhV9yIpUYGIVoarOJRBPAkBmhNO/CQDm2ZFnRB6QlREpIP9cUkRaGgJyrVhQZ7/GAACTFAHAa9ubJEcXtcqVfspmKgWdJTAwHDtPgAAQIHwYgfCWWPDGnhb7nUB470AAZ7aYsjhZUqb4sDlPmVLhkLPhaFlgBDECMIgPJ+VsnH/m4nW/AgDMiGPD6UkQpthRKBaQ8aD/DkDXLat1u2k1nTftHEB0hK9NsUKMkCSFeBBAcCPbqgsFWxyQvXATE3KjOEAFPQmAO/+bcYDUdLoUZatWmBFLUUhLJUXOgkiKFJCfdxAuCAQxQSwAAOyVbU322o5m+62MjOdtSc07e1s8HZ0jxwcGCKBDHZIegSAGYLDhLZiwFyZ02seHO23hsW4xode2nBxUrTFse4uG7fDZETsWAXFCGVM22ZHiQHGzcnqBcEbXAqWZk0xwx09zvgApjFhQKv2vbLvhTj/ffcfqem7LACK85iYQznUGiQIIgnPxZEwIKS7maS8FoBjhFbmA8AKxFv2ftvplUwBMxYIcnB8BAAschGeWlnwDBAIydYGnpZIiZ0IsRXJ+LEWA8Mq2ZmVKzfabnTEQLb7qZ6oW+FAAsNI/TOiwd/a12dsyB2EXQAgQ2bt6baZAWnCsyzMlmLDz1JAdOnvJksou2VHVDp62enygzUFgvqqYgBxddzkiXfVsiSCtlBU24HxvR8goyGIWnO++bfW9d62+747stp0XGLXdAkaA8DUYAiBVHTcDEIoPZ8SIMxEYsU2BMTplVOkAIee7OQDhGh4HOQIA2hbeRxIIWYAQV8ghIAcpCgFZLAAEpaYOwrdY8GpsAuE12W8FxO/lVBjwkdLSd1UbkBUBytsRC8iOXhcIr+9qU5AOsQGmkCktT+tRais5Khi2I6VjdkzOT62EBbQ3kKQQE3LlbHe61wpXPGPKEzjByJCQoMAMZOqs8n+cigzh6Ib+u9YYGY8B5EJkfL2685Zk6YaDQCAHCM+ayK4iQIodjFiiRq1AIJyuo1UiU1qa70DI+V4PyM5JlogHkzJEfRC1LRyESRZQG8QgTIsHAiCAUG8vbxEAyoqmQAhMAITfSJbQfRwOGBgyNFNy8+7+kKL+1gEITHhjT5v9TsF5ptLU+WLCAtUUG7P7LeHMqCWVXnIQggxRN0x4hhTqByplirZQsJG68jxPxvcSP4gj6eeU1up7zyiI49g6ORhHNw7ctaaBe3Zx6L61jjzQ9Z41D96zC2IIUnUuAiEGIgYjBuQshZ6DMS4wxqyo/pIVihUBBACgLpDJ+SElnWJBDEIAIgRlB+EnEQihNiAeCAQKtGkgxFmRsyBmghwf22vbLwqEi4oRMj0ORZkyIUDZ2+qBODAhsABJ4vm7+zvsE4G0QDGBDAkmAMLBs6Nig4KyVn+OO3fCsnG2Vrs7vO6qQAhSRLaEFBGg+d50/UxSyagdr1SBVS/HqSrGsTg5ZgEgtF96aJ3jj61NQLQMP/DX+J7aLmRpihHnZFVeTwBGKObiwD0diNMuSQJBdUEAYioe5IoJ3wCBBh5y5JIkEOiWxlIU4gFVMvFAVbJAePFbIFAfxCDAADc5fxIEHu9s+YYFBuB8yRDX3QGU9xUv5hzpVq3QbRty+m1/8YgdKrkkEEZUtFEbRI6XBe2X4yVF1AjEBWJCkWqGIl15LV/sADDSWx6Xtyn49rDCb4sB99zZzYP33TrGHlmXQGi/9Mjt4tADB4GgTdy40HtH8SJkUiGLilLZVsUYByPIFEAUCoQCMSEG4RRAKEg7EwAgCspYHBOypwdmB2E1qWnEAqSIrEjxwEFwAIIUvawijWA8nQmTjp92dce7yfkyrgCA84PBBEmWZGq+WLBSmREB+VjFuB2vkikWZNRMWI6cj+XKoXmyGAAk5qwyJPSelR7bWZmnsMqcqjoVeCUv9X33rElObx3Ryh97bB2jj6zz0mNnAUDEILQOPxRL9L0CC5BgDMG7TkCQSZ1XAKeuqBQQlQKibBoIMCEGAQAwMiWadQCB86dnR98AoUJ1QmhTRAXauiqxoNpZ8AIgTGPBS4DgLBAIEQBxdvSqJCgwACmKAGD1A0IUjB2E6PrmHlLWNq+c5yoWkBntVGqaqIwos/aytP+ys8BBQI4kRTwmM8LJcfu5VE7nWtlxyyXnnGSkol3ZjR7X6PE5AcHqbpGDAaDn8mfWe/lT2WfWMyEgAMVBeChZemTNYkPb6ENrF1AtkikA8eDdq/dxIEJ94WA4EEGWkKQCl6QROz2dCQrQHqQjIHKro/QUIByMiAlxr8hZEMWDX2+stReJB6oPXlR9QJFGv+i3KtDeUipKEH6VYk21we9UfJEZEQcm5UcWAMDp0ZVgjAxF9pZA+OBgZ2DCiV7bmjdoCcWjlnZuwgE4IW0PzTzFAwCRUROUtChgytEVcnw5wVP5f5Ue15L/996T/HCV9g9IXvruusz0XvncBq59Yf1XP7fB61/Y0I0v9RggPnVJghFtOF5gAUKXwOkSSA6GAnizwPBsitRWMgU7alR1VypoI0sA4dmSQIjttLNCIMjirqlLkpwfB+Y8geBtC/YNvEomHqhIe3Fjjb2144L9fnejvb2zwd7R9d29TaqIW2z2Yfo9rd49fX//RVt6XKnlcfpDSktp0rHqHYSLfg0skE0HQM6HCYDwvoq1hSm9tkpM2KSgvL9IsaCc1HTM6wNkiRSVrIiAXCAQpq/8aq10VnwtmY+0v2lQq1dOD9KDgz+1oZtf2qU7X9nIrSc2puvle1/bxL2vbFTPhwRI35XPrENAtOhnAKFdIHTrOUyBNTFjeJ2MytkhMJAo2h/Eh5LmwIZCT1dH/OqsiIAAhHgfwcGIgAhgCISQGYV2xYsbztk7uy7Yu7vr7f29jfZxQpPNO3zR5ie12qKjrXJ4hy082i7nd/gegO8fZLCH0GuLjqn6VX1AXUCndLIm8HQ0xACCsV9VLb+l9BQQCMzLU3ttm6rlw2Q1UX3AldYFYNC8y5FE0TlF+6sUKMleyGLqtPKRnMaB+1rFrODP3Gms/NFbcvr9P9j43a9s/M7Xdv3hH+2G7Or9r/210dtfOSu6xAgYQywAwADEo0kg+pAwfU+npIvvi4EgTlSRNQmEODYAQAwGIEwyAhD+H4yY8Usx4fUt52zmvnqbe7DR5h5qstkHGm1B0kVbk8a4ijQ7rVPWYRsyJR2pnWFLM6vH95S35PbajvwB25TT52AsVar5rhxMXYDFmVBsbwuA3x/osHdlHx3usnlHad712Z7CYa+QAQBLkR3xqlnPle2k6Tm7aaH4QvMJmHfkjKnA23v5c63uLx0A9B/5uXT7ia/6YTl74u7Xdu3BHxwMGAEzBq597vLTqphwcejhJBDdAgAQMNgSy1f7KLXFfQeB+ED6SpA+0zT+rdrhm2AAxCQY32LEjDkH6mz50WZbm9Zq69PabVNGh23O7LS9p3ssuWzIjpQM2aFiupuDtr9wwHbh8OweW5veZZtzeny/+EDxkO0toO8zaOuzB7xSpmijR+SxIGIBzz9UHJid1GWzZHNUKVMjrM3q8/T0sO83h9XPNckbeSrcXKICCLQhqIBJO9F8MhqcBgP6Iu0fvvHEgy+MwIG8TgYEMDj+uoC48egPdkWMGJZcARZfI2uCBcQJHB4zAaAG9D087lQQBwSCdS0tDpjgmdK4nY0YMQlE/beAOB9A+DYQMzaktdj27Hbbmdthe052WmJRrx0922/JpQOWVjEUxk4kB2wxpjN5oIqU1blVDNiZ32eHzg4roA7Z7tMDtrtgyLV9TlKnvSM24PTJGKDHNOw+SQSEToGgxyrU5is7okjbKyYknAEIOV+1QqKuFGzHyhUfFCOyFaTZRyAmVOuPr1OArAcEX7mPtHI/k4RopcqR3XIojztl3b56HyvzwbmfihlfufORJVgxLlCQJZiCowNocRb1qQMUA9AjcJCklmFig2oKBWhAqFBcKGu5bKVU1I1iq4DAigVEUQTEdGk6VRuAiMGYsT+/w46d7bNkrKTf0soHjQk4n/uhRcs2Xh19fCxsMZK9JJVIPspGfIP+4JlhZwGb9msz+7wXRKvCQYiAePdAu30sAACBr2NUyesy+21bngDUzx8oHpaNCNQRb10cKZ9wEPLqlf83MwXBJsxNjwXk/8SBiwqmLcOkmeT+nynAEmRVC4gFsGH41tc2eOMr67saJGrk5hO7+uDPdu3hn8SKr12qeG34xhe6funMIINCfnC8AxKxontC7yumtAqE0OpQcFYRR+1AgC4TCKXNSh64UlHTY/oWG6ZL06kIiBnpFQM+JxMPL4VxjTD95lt10dZdDhvd9fRslMfTUIt6ObSaYxB2nBq01XIq25d0TgEBgxU4fx49IlXHi1N6bJmyqo2qkrcKgK0Cb5+YAABUy4dKxyxB0rd0b6F9sOaIrUko1OcZspoeyUD/A0kBcUCBVAA0DQbrQHrkaM+KxAocP3j9ibUM3LGTZV12MPuC7U6vspTCJis4329V7RPuZOSLLGn0lrIoxQ/kiuuQQEGGnAFxfFCw7lRMiEGoFwg1ndftHLt1USVdztYpu3QMCwiE4gax4YKkSSAAREEExGlJE4wAiBkZFf0CoV8AMLLH+F40SeaAAAbbeEjSmOXWaVWKDTDidGPY6yWN3K8VzAgLDl2S2mOz5HBWvgdhMYI9A5p0C9nKFAjrMnqdNWxn7jhF+3pQ8kMgltR5MB5zOdqQcsFembXNnv3tQnt9zlbbklSoP25ccvNE9qW1Ko+v772vAH3P8/xBBeW+q18KkM+sSg5JSKuyldvS7aMVh2z2+iSbs/Govb3kgD3z9kZ7fUGCNfXf8vgRQAgAkDWN3QnBPK4nYIMzQSB0xEyQHBEXznexQ3c9yJIDEYo4b/bF8UEgFF1Q6upADE8CETNiRnq5QMAiMDLEjBOydIHA9p3vHokFDFr58JXYACPYYixovGZpVeO+grfk9tuKtF6fpPggocPek/Mx9pcpyBZr5S9L7fYpjL2FQ679+4uGFUcU8AWixwCBgCFFibSzq67Zrrxue+HDTfajl+fYT99aYm/O3WpbE09bWeOoVvznkqAvJD/S76tPvEDLrhqw7ccrbfbaZJu58oDN25xkM1cftF99uNX+6cVV9p0fzbV/fH6FJWSdl4NZ7QTyL93pMGBEjIAVIzcDQ2JZAoCuMTFuUo5CMzBsDoUqGiAAIW59E6TPCASPDQIhBqIQIGQOhCrqGSfKeiy9vG8SgPTyAUstG7QTgFAz6hPL2bXK1RWQ6dnTRuB6qiE01U6cG/eAyvzQQq12pIiNHIBgU2eeAi8p6IZspKff09kEyRcgHNTP7YsAwfHEAgL0XhVtNPJ4LfXcNVufVGGvztpiz4gRP3lzif3kjcX2wntrbOHmNMup6NYfOmFbj9fZ87OO2o9/t90+XHXQPlp1wN5csNuefXuDffenS+2/PzXb/uaZ+fb24kQrqB1QFa36QIGawIvTsWHFBtiE8zGXoyshQANC9zjVtOIPhZ23wKmiKRRhRNgqLW+5JgbQU4pAwARCsdhQTNrqIAwFEGImpJX22omyXgeBSeIMyRGTyAzDZjJRIBkiI0opG1bKOuKjinl1TMFd8ZhAxkQ+v0n6znQFTv/4EBs7HZ6qLk7pdgCoA2hROwDS/Tiok4oeUSpKJgSjdp1WuisQAMYzo4oxy6m76tMMby3caz94ca59/8X59vc/+cT+xw/fs39+YYE987st9j9/ttz+8seL7R9+tdRe+Gib/eC1NfZXT8+z7zz1if3dcwvs9fkJduRko9cUXRNfuHxRCxCEYQEg8NjTURngBBmKgnLEBFJUMiTqBRhBlnSBdFV1S1X7DTGAoTFkKAIAExvO1Ou1SVkKTChQXIANM46f7TGAQJayqkI8SCcuKCh7WloVxhKTzg5ZQtGA1wzHK8JAb4oP9oaUdYs0fnEK6WeHg/DJ4Q6PDRRvDIPh1OOV4y5faefGHDy2LdP1Oxh9JLYcEkj7IhYc0XvSUaWNkVl7xaq67yvTGLdZG9Ls756dad979mP7p1/OFQjz7Xs/nW9/+9MF9r2fL5Ittr9+dqH99Y/n2r++sso+WZeqYNwqR1FPfKZs6pGntHENQQCGAdOzojgOTA/KMQiBETyGEWEvgvY326c0FAvZ41Ymya4bQBQ3CgAkyWUJi2TpAkBEIKSc6Z4EITMCgaDMbA2Ds4yGp5ZLs1WscbbgsK7YoWKllEVDctqQr15GVhh1WZbWo/Qz1AIUYmxbMspyRCue3a40zgcwFKWgjuWIVTmKNbCK4ow4kai4QFs7pWrC0muueIrKtmVaaZct33fKfvjKYvv31xbZr95Zab/83XL7wcuL7X//crH97XML7a9+PM8fL96Z5/u+DYoTTUOPdX3oMYP01UFQzt+vFT8FAlI0BUIAIkhRDALX8Fw/LzbABHbnKBjZAGLggMlxn/iTw1k0zghnRgChSJIUQIiCtMxBSC1BjgacCaSojHH4fI2A8MMSAiHprDKYMwMuS8dkiWeGJivorSq2kKK1AoJVz0QdgCxVprTqRASCpGVP5gVbsvGYLd1y3HYdK7UThR3eGT2lAE+3NFnyBBCJpeMCQjWCgEgq7pHeV9mKvTm2aGuyLdpy1F76eLP94KUF9s/PLxAbFsj58+27P9H1Z4vsFx/ttIS8Jjvf/8jO9z6w6i62LOmsSjqU1pJR0WOikENyiAEAQIMPQGIWBJsCYboBCJU1RVvryH3FhwcuRwwXnFYKX0xMUJxy8+KNxzCC4g1JmgICaZqRIjk6LhA4XeKDrGxUR7P9JwUC6Smj6ikC4oiASC4dclBSJUnHpOuHBAati/1FYor0/oBW8jYF4M25fT5fynDwjvx+S6INcarN5r6zwd742Rz7/WvLbdH7m23T1gxLlFykSZqSKye8QCNYb81stbWJJbZ4W5ot3nLEFm46ZB+u3G8//2CH/eNLq+X0ub7q/0Z6/71fiAm/WGg//f0m25Zaawt2nrHfLU/xiYiqrrtW0a6iqvuONfSH6pqaolvOBQTSUIo1LKSkigUq6nB+bNMB6JUhRZ4lRXJEz4mmXk3nLaWp9JKuyuECI4oLZEpnI1k6gyRFQboIaQIEgjLZETUC02R5tbBAZba+kUFYZCmLiQfVCzEYx72dMabXxjxecNCDY07H9fXEswJCoOwTS2BKiCODfvjjtFb8oZQam7d4j705f6+9+PEue0PXuasO24p1Kbb5SKVtz6i3tYeLbPnOVJu7LkGp5n57fe42e+o3q+zvf7HE/uqZBfYX/zZbAMyxf3h+iX3/1ZX2ry8vsX/85Tz7Py8ssf/1q5X2377/if3lDz+yfRk1Vtl5z0pa2bi/5SAgR4BAwA1MCPsLGI/79Np0x7PqYymKjdhAPLioIE+gpwUed1fpaTHpd0ZsmJQjARHkSM6PbRobZmQIAD9bxamSaIgVFhBY/GAe7QrVCT6JTKYkZ3OsiXn9+IwAhRxHjBhp59TN0bIhO1oyJHlhpFGgCTgCPK3oI4Vd9qsPNih7WWbPvbfR3vpkm330xmpbMH+nLd2eYou3Jtn89ftt5oqd9vwH65TTL7G//Pc59p0ffqzVP8eeem2VvTxrr721JNGeenWp/YsC8z/9YrZ998cf2nd+8JH9xVMf2/cVkD/ekOkZVVHzLStsum7lbcwXhT0HMiPa14BAnYD9/4Ixz/1rl/W6YkIAIWyFtjobaIVTRd/xLKmkKQLBgYgKNqQoAiBmAi0NB8HPV3GkpzoUaBhMmJxMljFQxXBVnpyO4zGeEzD9qgDLaxR14WxBOGPgKS5MEnOotDkhs3BHrj39+hJ7+jcL7elX5ttr76+R3sv5G/bZuws3qChbZt97brYcP9O+K7n50Rvr7YPVqbYnq8ELS3bRkM+nXlmi2mGxfbTykM1am2Iz1xy3rcnn7IRqnaKW21bQdNPyG677tig7cjXRnjPyEXdV3fEymEHTjw5qvPqDBRAAgBjRfzVIFOCw6xYsgEDxdl6x4Vz7dUkQIITgXCRFiQFwEKIrADgIQYYY2xuUDftEMe0KznoVCkFGwsNE24Sq5DDRVqhcmJFDmnpU02ESOjiYa3gcmn6Mq9N3Ajwen1EaV3Dhir0rKXr6pdn2i3eW2ksfLrc3Z6+ylz5Ybt9/abH986trVXgl2MxNebYl9YLLYOHFm56mVvdotQ0+sj0nau3591bbrNX7Lb2kw851P3D9r1Uwruy8q99zwwobb+gzXFVdc8WnM4gN57sZfbkfAcEmEJ3Wz9z5AMOec3A+YLD6AwMGrn1mg15DCDT9DCDAAFY/MgQjYIFP8CkuAIKnqDBBIMAGZGk6GJMgUOYjRbkqn5EjUlRoHEsS6RZHjJAmTriUtqoiVFXo6Zic7Y09HC5DruJZUD/gJwOgwBZ9AIGIrC2Yc9Bee26WvfrOMntZAMxavc9W78u1pQdKbcnhetue22vJyozyGm5aXuN1O9lwzYov3rAy9pM7pbkdt+2DFYcF2ipLyKiwC0o/q5QBlbXdcmP7s1wOP6Ofya+/ZrkCgRZLmSSpRtkSNUMsS8QHagbf8FewJfWcvr3Zr9U/IKkaus6GUQBhMi6QIbHlSfsiGo9hy5O958m2xbfMAZDKxABQQc+gSp5eqHES0c8Ny5jFx3nOBgUaGMF44cm6y97IY8+XkUO+hhwBSBjGCtKEAU78HpyQYYA2Ia3WErPr7Y15O23ehkPOOhyeXHnZEs6OqbJWpawaIbf+qmVHbZIzzSqGFGCru+/ZSS2W95fssvX7c3x/mc4qzsXxgMAQAKseCTotABkWKxQIvIaUMVfULBBgAiDEDGCHLQYAmWLlD8rxtLmHb9Lq/sKfAw5sIUtieOyiqubJkRixgP6R7y0ICE9PAYDATGwQCGFQjJFJZleVHWV595Q5mKnAzJRxOP7DCfqpAxexzPhBPhVXTL753CdNPX0NAxwCNrEAUOi88h4FUJMRQn3AGq3EAun0ku0Zllneqezlpv8MM6fJqieonNnsBwDqB3pUpXIoK5nvPZBRbcmn6nzl1fc9UD2g9FDOhQF8T1n7TQekVMwpVlAmKzsrVrAPwUBAg4orNJx0FTZ4oPaMKax+lx8F7bDHELe5v5CRzrL5o1gSAdF5Se8zFNraUyCw7xyBEDHCCzVZgQBggjuvljH6MErvICBJIS4gQwGEeP4+PgsWHz3C0T4XKiBY6QDAzhtSRExgPIXUlZYHjT9ehyX8PExCzqguGVfnlCQSQ5wBUOZKqarZ3mQEMtNPbIppzcq9ca6MiTtme5CTi0OPXFoYdamR1pOGwgRGYqr88U0HgUEx9qVjANBvYgKpJebbo1rVMQiwAOkBAOySQBi/86VNeIub4k5prctSAKFtmJGYqe3OCv1tMRMo1gIDwiQ3PuYAuh9Cr5T8V7CfUN7rTOCgs582FEpesEki4rPBsYVDeqx0HM7qVsBWkHaZigACCN97kPltC1yOACEc3uCgHnvEWGU8gq7ixsEUCD7QSw0SDfUy6pIvWSKwci6BKTuq32Y2cwYeiAnscAkIBWwqYyQHEACkStcySViFgHbZ6iNF5WdDNgMTAhsCCKxsgPAiTjXD6C1W/xN3/uW7TxwIzBkhMGBEAEGgDrK/EHbaKvQ3lbGpAwDEUwVmB0CLms2ycOJftZbsRLmD0CdUBEL1gAfnUCcwcx8KNY8LeszZ4CKcLv33BhUludDmMAXnvc7qcTgLzJgiGswBDYzDFsgWgE341+OpZ4oaQDir9yC+sGMXxuEDCLTJffhLQPjZhMarCtDXvRVxQc4ny8HY5mTTv1py420KBW6fSZJxZUZpah41rPwAQHhMPJhkgYyaASaw6scFwJV7X7kBxEQEBkAgV6Sw7SPUCozBwIYQmNllgwkF8tupuPugGitddRNHqshA6dEdLx1AjvqcBX7inI1nMcGPBAkI6gXYAACcViHtwolljACCtmjHkCzFCQ71M2E4mL66vu5OZqNDj0sVCwCpWHLCifny6Ps5wFEs0DhLwBlmWtq0tnnMhHVGNewADAVoMYJJ67OKD+h/ja9uyQs5uoCok9wQeAnSjMPw3IfDFDsYUeH7CMKdpJ9KM+OsKA7EWJwJuQyJBTEIl2UTcj5AOCs8Pnwh4Nj8jyQJELr02XxzRwtS/vKzbiQeSnS4y8yxs/2ygUk7XNRPiqqYIBC4/wLDST7UKhBgBIEaMEhVGQcPDmfUnNHDG76JwfwPqwyrYTxQz+mh8D1MRWBIDw4PtysIYABg/DqzROzWMVtEE4+gTIscRiBJGIxgKDhbYBCoGQpm0x9HAwAGKwCFSQw6mxiDYcgQqSQpJUXZ1EZNXAvE1XMIxr7XLCMWjBELIsfHIDgb7gY2kEEhY7ChWakq45EV07Y4C0hoBAJJTjJOL+y3/af7bdfJXtuT32c7cnsEArd+ERCcLmRw1UHwoz9MFqvsFwC8IaPhpGFs57GJEY4cBfOh2f5w2oXe+jeOH7H1JyC4MmqO489FwCBJMMUDs0AIAwTB4exXBCAEgpiAJMXZEmzg7BqtCFY6n6FJILjea7WHwEtzLcjNVPYz5WxWPQyIWUDqSeYTr34MJwMEzr96n3mlr+2arlfvPbFrD5CoEKippGEDkkS9UKkFFoaFJaEu66NK/UcsuWTAtwO25/XY5uxuWY/flmhGJvfeUWD24zxiAhMBcSFBWgWqTBTU993SH0p+LVNKxvZei9CnWgwVIysPUG5rJQqACAQczzQzwHFKpoENcq1Mvl4hEMiSyHg4aRMkiP3scOIGAGJWZBG09XpmDemwZE0geN2g38GKp5lGR7MNp0vvXXaYQfKVrmB7JeT8NOrCBo6AINVEggRKDECwEHiDJGn1S4pw+q3Hf5i0248Zqfzag/agV9GqN0ZCXGD6InRStWAEAizIoIdWNuQgcG+o9eldtiGj21alCoRsYoJSVEa4cXxJ07iVX7ysVOuqnWu/KkcKAEV9nN42SpUZjO29eCQQqk8flmUKwYGQg8JJScYVGdQSULJwVkyBVLKFrJBVUXcAApIECKS6KZXjlqgYwR4DbIAFpKwcFqEtQVwIE9jh97Pi0fkwQRdkJkgN80ZICzOpTFMwEBwCa2x8PbwWKmNkJk5PkSAYcPORnP/pH+3u53+W/ckfAw7f0yegW/UZ6qUC9I64PwZ9I0BgdIi7jQHCIYGwLbfX1qZxc64uW5MmEPIiAIrrR5VWjVtNx1Xl0zd8HKRlCC29q5V1T6tKaZwyAVbV4HX+qKnq0StHpWmwgTNgbHbwOACCXKmYkVZjMXMwiic2QtizZmfNV7+v/FAnULSxa8c4DHGBjImzCiclRwV+TuGGQKAFEbEA2REArO7+aIUzm4qDcT6DwNckKVeYzL47BQirn3Q0dr4XY5IYlyg5+JK+RnC+JRDufPanAIKutz/9kz+/+eiPNip/UD27HJHxKTMiPSW1515JgJBSOmgHCgRCTrc7n5neFcfbbcZJyRA7PhUtEw5Afe8NadtdOfaBPow+iKjGh4qzhvCBnrg+8kfxB/DBHQw5wDc8BJiPhQiQJoHhO1De7Apa7ezRc0Ahh6fqpljz+1Uo6CJBx8ou+ekdzi2w55wqVoTUFdYwZKD0T5UwTKBwQ//jzIfPEiresLpx+DV91usPwwzqdckIzz3LwSL9nw6AS5j+fljC3z2m9+FvBoib+nlYgSwFRvxJgfxLVwYKtnjshQYe2WWOQKAxmiwQdisgb8rq8tvUccOulcc7xASBcFYgVLZctvOd16yp76ZW9V3Pfwevf6o/Qh9AJTsf2IOTfwB9GH0APhR6yQeAGdAeB8RZB2kgoHRG1SjGhEPHWDiMEdq/973Pz9Gm83IoxRY1AXd82ZrPeOSwHTqjzKIinMpkBBNAGBiADQRmsiJPP/Wevmum30EARvtZJExg3xAAt7RiWbk4DSfy+a/ob2KVM/DllbAczt8RAnZo4CE1LMbRm5/bFfyg7yc439DP8z6wCwCJmUhRnBnRrghBWTUBgbl0yHYKhO1iwq6TPc6IDQJiBpnRFBOuWIOkqG3ojkf7/iuPtQI+FwCsghCY0MHYbik48UexugADbeSPYPWwArF489wlIspMuPYILMCBNe68aBXTTqBLWtx8Q8FYaeu5CTtRFQo29gVIUwnSAEUFTYHGeLy3I6KMCEawRxCq3gAEjkY2gp7/OXx+PWdRwWjY4gFZwPFz8aIJIy6kto8cCAo13ouMiTgBEPwsaWqdMkCqZQdAcsToC81Qbnx4QgUaIBwo6LOEwl5LLOqzfad6bGsWMUFMKGlUHaB4UH5xXG90zVoGb7sc9V1+JPQ/0y/90jMBPjj0u/dF0EIeP/gCffyzA8IfCVv4UHFuDdVxBOAMxUFPfySGXKC58dwn4HSOc2ADljx0hoRWxG1lUTetlF6QsqLTVM6kqKoTwjGpuEgLSUDokCo+iIme/eh9cS7ODgvnz/75AYG/i9dxLJ81jMoz1f3NLimxjtcAwoO5/o5xgcvfCQuIidyagazI44EAYHuYrnG8R8M8V2JxnyVFtl8gbMsWE7JUJ7DVVtI0poAyYfXd11R03FS6ddd6JElDkqTLd79wCYodP93uCxBW1h1AEOXRWv6g2MIqC5qLbHEFFA94+iMIjAGIOHX8wmUMqSLgIjVUwDTg6AfRTaUhV9Yazq1xWBAjU6qI6ob45A4T2zCN+gCgKcD4PEiImz5vLKn+GfU5CMZIaRzbSH1JLkix0XxSUVobxA4AARjiH1N4kyyQDHnH9EK4/wWFLzcgSRcbjp7pdxYkFPS6JG1IFxPSSnt8QBUQajouKybcEPK3lG7dsa5L9/WLPrUJxYRYjgDCbZos8QdBS1YVf9R1YoeuXthg0s8pYIKmXtbrBEUfvpVzWKmAwTQcQCBPgEAaS0XthZmfUQu9oSpZ6Jqq1hAgJYzNCwjkibb2edJiSRSH/7xIEyNgBY6+qhjB54ozJWeqQKJu8Hkirf42JQ4+2OX1TihScTZnFACC9wMABoMBIN7SZMYonjPifLO3gGq5JY9AKB/04wew4KAkaa+YsDZNgZkzUyWNo1YhKTrfeeUbIHSO3tcHf6QP/nkIRC5JUVwQIGQJnmkIIBw/PWaQwgEWRQ0ZBT+LAVicYeCIWLJYpTgDEAADTUdWSGNpT8Srm4yKIM6Kx9mhvU2H9Zozw/cUYEkkVbxH2DfGQsU8KsAvMQDM7xIDcSiFHdmbtzsoPvW7eOwtGFX3bFuyh8yoCzEC+fGBYKWkfI09BL8BCduZbjCBjTHu1Rr2DmACDbsjAuFwIXLU63dRnnG2fkSZ0YSqvMtKr64qMAc5ahuMQFBcGFFcQJJwNBQOToTKoZKMDcfifCTq4Zf/YY+e/Kdf73vckGzxNWQMcCIGwZYYCOSJLAsnsSrZQGcXjJYEu2DofHBMYERtd4gZHicUtIua6E8FueIKK+iu0vLGqbCC7CluYYRM7lOvsAGXbqvHFWob/7loeoJWi4y6xyvzqAby/WQxgJF4ZIi7g/nknWJBQd3UrXi4KSExARBSSmjaiQmSo92So9XUCWcbRh2EqtYrAuKKx4QWMSGAcE+rhGD0eDJAu9TIWMU4bkKZ02T6KiCQKYJ1AOE/7KEsfj4JSJShwBRkjIyDRpmDABsEAvLA6iWDghWsYAIt2U+tAAAID8YCgRlQAAgHzbnFZtjIgRWwxlvc+n4vFsUMsikq9ouSG+IGmz0h3oTNH5xOWwXA6YH5DQu10mm/AA6rn100GprEAb9bWKPqFgFAs46u6RQA4X6pDoBYQBf1kKRo/+le25GjeiFdcoQUVbaMOwA17QGEVmVH7cPSU1XLPeMhVR2+gZ5SL5CisXJDTk1uHZf2vA4b7mm143iusTyRUT2QwQRe5zn5+o0Hf/CfIzYEiQiBmwAOEARKP0+mDARQWMkcj4IdSE1j/wN3MEGZlBUGUMR5e0OFH6ku9QSv8bVw8lPAOJsCONVxfNHXkT66vQABADAAALhlZzWvdbFZFPZB/O4v9IjYL/FsCOfHNgVCplLU1LJBB+BIsQIzmZFA2ErRFoNQJRCoEeoiOWqFCYoJHVHljCQRoEdUrJAfY6zeoOHheQwCun/3sz+6sz1tRbbISDyokx7KACWSJJgQs2o02scFEK879NhrjptPPKjSEQ3dUWSJkUbp85gyKT3nFgpFkiVuwcMeBBPgnPrk5E+q6ow0Pc9StR2DQSyplMEm4g2MYSeOm9XSz8L5MQDcvpPKnq6v752IGeyP+P1TFYyJBaSjOD+3Ojg+bAWEI2ds5BxXtcyBTA/I+d1iAU28DgXmKCYQlKuUnpIdAYLLUZQddQsEUtWBq4/tkkAYV5Aejyposh2XIjnfG1wC4I5WNyvddV8gxIGZr5HmuukxAZ6YEEubV95IkthwWSCQOQ1eY9MktEO4/wRSUs1Klnb7pn2vdNxXswJ06y3Lrrksh8v5FeN+4IRzcPuKR22/jD5UMgfTBRBAwRocTrCHUdQXgQXXfZePG9fi9PjuwaW6soMIA0IQnohiQGjS+aqPHM9NCZGf+F8FpCorggUHFYz35PfYrrwe26Iizf+tQbpAKKobslKxobx5zKrbJuxC11XFg9vWMXJPqdgDG5QUDYkFo5IjnM+OEsaqJwbgSHe2VjUMcP0nDnz5Z2fDHRmZVCjxQ7sDdmA3xJCr96N4IqPGmPCm2hMvsOg3kYGwX+BXrdiQdlJlP5Zk3LHsamaitFL1mMp6X9Gw7SkYsW35Q7YpZ8A25Q3a1pODtrcwgMKuHXcHCNIUNoXieBDfzi1L75mvihwgiAfsJoYBuABGfAtntn8xTriydYn2MzaE9LCBc3SaJUqG9p3qsx153f6/JDZmdNr6E+22JVMgnKoZULGmOqEBRowpTb0sJty0rtG7NqSgTNvC5ed2uLrz5TBPV+V8Vj0BF+djBONPvwpBmecwwh0PWAIqBiHIUGAQdQNXL5xUbVMzUBA1D933PB1tJkuhLUHPCXYwwkhmxN7CWVXTBY035OAx254/bGsy+23FiX5bmtprK9P7/LA6oGwWKHsKhiRL7HcTbJXZaLUXK2YwTBBa6aGTy1gPdyU+deGy1ykMu/GYmx9yboPZ23BvVCpiznAM2TFlPkd8xfdrxVMHoP0UZiEGsIu2RRXyBsnQehVpG8QCByG7vNvyqwes8PyQnRUQ1W3j1tx7XUy4Y8PXAgiXFYSvKjPCrj944o503WfVexb0n/ZYjn/8VXQlK4qAQfu90p5mgBGzAUCvyPGeoiq+EAN6lQXRt6Hb6vsRnqlwy5zQpMNoaxTIceg8DT2OWtFx5WYlC1N6bN6xbluY3GNLBAS38tmSx60fBvzUKA1B7jTJ2A7SwwxUzvkrvm+RUMyxMIaeL/nexolKxn7CKCjTIkyZMBSdoa/jeAzJSdJq36O8f7fkhtW+KZNNmy5dtfKzWf3dtlUM4L+uIEP8xxWYsBUQkovaLauix/Iq++x07aBVNF+yhm5J0tBt65ccjdx4LCeF1PTGQ9mjr1zPkZqHkhyc/Rh78ueIAbwWWBEb3xsbrQ5ACBV1aCeTddECCCfmw2ghlWiDVr/vR0RyxOuh6HosibpvuZKVjHMEYKb2Rm3H6SE/oM49lLhlw9wj3X5aiIOLW08GeeI+e5tz+gWGMpUSBU2tfgDZXzjk5yj2FAxagiTtUPGQVjX/yGLU+B8KeTVhmpDbNDPozKQ5mY7f/UBVMDtmO6T1OHpHbrdtVubD1uXq1A6/RwiP+bc23LZiTWqbAGizzeltAqHNZhw62WJJp1vteHGn33+HQF3bPiFJuqHAfFcx4aGY8HnEAAVe2V2BcC/SfwwggvE4pKffdj6MmGLB194SJrawk0UaykFt7ivErpz3asQA+jXk5TxvFBDMfLI3wRbmRQXTEskQ8gEIYQNo2Jaf6PEz09wxYM4RbtvQ7WxYeaJPEtVrq2SrM2T6Pg6xcJaaU6XrM9j3lYQIhJ0CY3uuZKRI2l7GP9UIQPDPNdIqkJ4R1/kkgRCsz1sQbFuy+gGAG7Ow4gFhRXKb/7+hNWlyvmxtaottPNFq63XlthYzdqQ32K7MRgHRZtnl9JEGxIZRz5I6RgIbxm5+KiZ8qSyHOBCCK1fAmO5ozAGIpCh+DcDiXhMAXKMuUJD33j2b5CrIcHCc/pGTkxYWS3+9b6SMpEopIhWqDwwoIzqnLIk9aI7kblfg3ZYbrpyR4w7F3Gt1nt+pGCCmns/Xcw61L0kRS/R8RapSxSyBk9ZlW3J6bZ9A2JbT40PJ+06ruuWAi5zO+QputsKkxP6CsPITaD1I6/dJhrZ4zt/pvSCumxR41+nxiuRWW3as1a9rjrfqtVbbIABWp1y0ZUebbG1Ks81YfvCcbThWa/tzmsSGDsup7FGgHlLhNmFNfSE2DF59aBO3VTHfJTZ8IRmJYoPkKWbFf2XGFBvuyvkARzZ1VdJGljV0/TPrk+53jHLChc2QG0r3mNRTynchnINI5x9ayDiMd6aJWScymCu+B510dsRXL/8QY4mcGlY2B9p7/A7F3AiLKzdUBwRujA4gvMa9W+ckcX9v/vdDp9gR/v0M//NnV77YcVJOlYbvyAMIHB7A2K2vsdIx/o8QXVBaD9sVbDdKZtbp5/mvWmtS2z3orjkuBsj5K1NkyS224thFWyXnr0y+aAsPNdrSxEZbc6zJZizcW25rkqptr9iQXNhuGSVdig0DqqLHrEYpa2PvNesdv2fDAmJIhjyNKk7ADkDx2kAOvjeNFQ5EBAjPYcGNSQDYx/3U+pXh9LoEqXrtoAi67iufo1n8+xSCH9oLCLm1pKGXfUAs8cywbcjstQVHOmy+HM3NrrBlnByVQxcc7bBZh9oEQrsfbo/vaA8Q3Md75sFW//cy/EeTefr5+f4+7eGfMCW3u4xsyRagWUFaNiqwbtQVBwMS25FoPP8pa3tul0Dotp0KxOslPfG/NVvrms+/N2vTqpcMSXaWHmm2BXI8xn/pmnvggi1LarA1yQ02Y+7uElt2sNK2pV2ww/ktduJsp52q7reyplE71zrmQbpLbOhRfOhW2gozOkf1fPy+jV5/7BkTARupuiMgYmbEgGDOBH3dZUjZVq8qcG7UwdQaJ+HLmdFRQcS/TTnO6VDRHuOkaHzUCi1OliysS+/2f5Y062CbnCpnJ7Y5IDBiUQTAx9w8XdeFer7gaLv/txNuHffRgRb7cH+Lvt7iz/mfPwDAe8zRey5IlHSg31rBOBo9X5kitkhOFia12vzEFr8DGq9R7W7P6bQ9J7sEQpev+kVJzXL2RZcdAi/Sw+MVx5ptUWKT/4euD3fX2cw9df4v0xYfqrO1yQ32fwG4SEuTyXWOxgAAAABJRU5ErkJggg==;" vertex="1" parent="1">
          <mxGeometry x="50" y="70" width="79.73" height="60" as="geometry" />
        </mxCell>
        <mxCell id="d72VBFYSwYj0vfxk-ziA-19" value="" style="shape=image;verticalLabelPosition=bottom;labelBackgroundColor=default;verticalAlign=top;aspect=fixed;imageAspect=0;image=data:image/png,iVBORw0KGgoAAAANSUhEUgAAAnEAAAA+CAMAAABzwr2aAAAAAXNSR0IArs4c6QAAAARnQU1BAACxjwv8YQUAAACfUExURQAAACtVijBQjzBUjy9Rji9Sjy9SkC9Sjy9Tjy9Sjy9SkC9SjwAAAAYGBgsLCxERER4eHigoKC0tLS9SjzIyMjMzMz8/P0BAQEdHR01NTVBQUF1dXXJycnl5eXt7e39/f5eXl52dnaKioqenp6+vr7i4uL29vcPDw8nJydDQ0NTU1Nvb297e3t/f3+Li4ubm5urq6vX19ff39/v7+////wK4QcYAAAAMdFJOUwAYMEBon6evz9/n7zhUPkIAAAAJcEhZcwAAFxEAABcRAcom8z8AAALlSURBVHhe7dnbWtNAFEDheEYtVbFULWIpBVFQaei8/7M5hz2ZySRpykX3Deu/gOkhvVpf5pDq2avPgJbXz6s3MgQ0HFUyAHRQHHT54iaABoqDLoqDLoqDLoqDLoqDLoqDLoqDLoqDLopLjn+Z7zKcTBbmzwcZOme/a2O2P7+GV0tzEwZd0832mwy9+ZW/8Iu8XJqVjJ4qikuGi7OfiGv/5t7FHV/KdTE0iqO4ZLA4+8H23L76dFmH1FJxCwnK8am1i1ub7cWpuzAmR3EUlwwWtzQPMivOav+VfYtbhPeyEcVRnDXdSDORrSorzpbYZLL2rfXNqtPNw0f/LytuXV5IcRTnjBfX3PtCa33FzWp/QV5cPpbfoziKG/Doe9wivEdxIygu8scY5u5COsuKs5kMruMSmUEpbgTFBekYYxtm0Ly4tFc1IbWe4mJdeWWs43pQXLA25vrUtnV2K5vKvDiXnBg8j5NJtV0ce9UuivNktrRsXD61VnHNMweZXLvFNbuLVnE2ZM7jChTnZQnNan/KURTX1i1uGb/eLo5nDh0U52ULLknmccXN6tiZnLT4ap0Tnqu2UZy34x6XP1UIVp3ibGYxpLK4AsVRnJeW+HFT2RRnl3jW/d1f98dyj1aL4uLaz2nPquiguECW+JN5717VyVNqF2eD+9fc0sriit/hHkdxQTr/kGD2L256mwVHcWMoLpq78w9z3/fMwQspxVVdKu6sbn2T4kZQXNKcqTmtUtxuor+4k6t4KiwobgTFJfsUFzSz6qI22/MwFN3iChRHcZEtLtWzX3GTH81Jm6C4ERSX7xoaq25xMvSK05Ecs+oIirPW0llys7u4HShuBMUNoLgDobgBFHcgFDegKE5m2yTtatvYOYyguAEUdyAUN6CYDfdWFocCxUEXxUEXxUEXxUEXxUEXxUEXxUEXxUEXxUEXxUFXUxyghuKgqzqSAaDhXfXirQyBw3v/sgIAAAAAAHjCquo/GzpY2/9+k8AAAAAASUVORK5CYII=;" vertex="1" parent="1">
          <mxGeometry x="150" y="1060" width="625" height="62" as="geometry" />
        </mxCell>
        <mxCell id="d72VBFYSwYj0vfxk-ziA-20" value="이미 회원이신가요 ? 로그인" style="text;strokeColor=none;fillColor=none;html=1;fontSize=20;fontStyle=1;verticalAlign=middle;align=center;fontColor=none;" vertex="1" parent="1">
          <mxGeometry x="335" y="1140" width="230" height="40" as="geometry" />
        </mxCell>
        <mxCell id="d72VBFYSwYj0vfxk-ziA-24" value="" style="shape=image;verticalLabelPosition=bottom;labelBackgroundColor=default;verticalAlign=top;aspect=fixed;imageAspect=0;image=data:image/png,iVBORw0KGgoAAAANSUhEUgAAALcAAAA+CAMAAABeD3q9AAAAAXNSR0IArs4c6QAAAARnQU1BAACxjwv8YQUAAABdUExURQAAAAAAAAAAAAAAAAAAAAAAAAAAAAAAAAAAAAAAAAAAAAAAAAAAAAAAAAAAAAAAAAAAAAAAAAAAAAAAAAAAAAAAAAAAAAAAAAAAAAAAAAAAAAAAAAAAAAAAAAAAALkHFPAAAAAedFJOUwAECAoVISs2PEJYYmh3gIaNr7K4v8DMzdLX4e70+e69yWcAAAAJcEhZcwAAFxEAABcRAcom8z8AAAFMSURBVGhD7dd/T8IwEMbxboiKU5ngz03u/b9M79rraMckhmhzNc/3H0oWwqddM4pDCCGEEEIla4fPKx0u1dGjjhY6e/GPq8fdbEeij4dVeDd3b/ZE9HKt71LaLV+YepOPF3WvWS29B1vubrbh4gQy42a2iDfPFLy5u6cD3wjRqyhze2xSSXev394O9BReEzcv6Z0fdHS40YEN93pUEDM8OHP3YS68X3Y6suLuokxosrapux3ipOKszLh73QhcmELqTmRxCkbczW5aUXWk7uPNiHfDijvZCYvuo0NvjBn3fFfwc0XyC527/diM+3S9v3NbWu9a93etzxPFSnU9v2v9vWRa+PbF8wkfusI2Mnc+Ea8/D44XnAfTZF4l3efP3+6n529/cCzqds3960X/d04r686bu2fB/cvBXTa4y1arGyGEEEIIIYQQ+oc59wUWnjNmm1keeQAAAABJRU5ErkJggg==;" vertex="1" parent="1">
          <mxGeometry x="190" y="260" width="118.06" height="40" as="geometry" />
        </mxCell>
        <mxCell id="d72VBFYSwYj0vfxk-ziA-30" value="" style="shape=image;verticalLabelPosition=bottom;labelBackgroundColor=default;verticalAlign=top;aspect=fixed;imageAspect=0;image=data:image/png,iVBORw0KGgoAAAANSUhEUgAAAcwAAABMCAMAAADXwnfYAAAAAXNSR0IArs4c6QAAAARnQU1BAACxjwv8YQUAAACxUExURQAAACtVijBQjzBUjy9Rji9Sjy9SkC9Sjy9Tjy9Sjy9SkC9Sjy9Sj0RUakhYbUxbcFBfc1poe2VyhGh1h2l2h256i3J+jnJ+j3WBkXiDk3yHln6JmIiSoIuVo5OdqZegrJylsKGptKSrtqevubK5wre9xbrAyL7Dy8TJ0MrP1czQ1s7S2NPW29ba3tfa39zf49/i5eHk5+bo6+fp7Onr7uzu8O/w8vf4+fn5+vz8/P///54pfYIAAAAMdFJOUwAYMEBon6evz9/n7zhUPkIAAAAJcEhZcwAAFxEAABcRAcom8z8AAAViSURBVHhe7ZppW9tGEIDVpkd6yDEmQKEUQoKbtLihdU3B/v8/rLOr2UN7jFZCJvI8837os0bWambeveS0qr769meBA999XVXfY1s4dF5XFbaEw0dkMqKRuRMOHZHJCJHJCJHJCJHJCJHJCJHJCJHJCJHJCJHJCJHJCJHJCJHJCJHJCJHJCJHJCJHJCJHJCJHJCJHJiF4yl/UNthI8Hc0+YzNmWf+KrZfkn6t5Xc8u/8aPZPjkxe1F/RGbPVnP3/yHzf0zikyda1sm1vEeP6ZkruqYgSVLsn2HnZqovfCXeAU4fsS/+Lk9HRkH2oYnszxqfeeEZN6dQ6inZmR7CXvFgEwimdsrvFhfmlK9vMzrevbh393uAZw2Yb+ITFeGacm0Q9spLJMJn2cfoEbb2znWilxmr+mLfpGRuKLxKFjVJh7TavtqWPWVaclE3SHz4fYclqx6dqrqMzaUTDW0H7VSzNOX2WTSZBnKXNVvcDZvjpoqUDLX85oYvYNlejdi3XMycWT6F7tl5qImZW7sigXgojUihEyoWJPB0ozxQpnw0RZm2Yx8QiZ8+4RQTU5bJFFrf2yZ6VckEyR5zD5nZGajpmSqvi//VKE8qA3MjPjRIGTaMkLgTatQpl9HTCYvc6sek5x+GsjfdZYjrnUvmbphLpbJzEdNyHw6qo+dv82ZefRo5GV61YBlU0e0B5mbC5USdPBbOrFrqGhuHFj6y+w6ADmSMomoCZnL9sIMbqOon0deph2zLsBCmfDRqxrWMWlEnZB0PWBjnv3e/K0F5P/XPFNmR1hrDblnPksmGTUhM5zJ+fVoIHmZXv1NLoUyYRy4hMydCZnqXdQW4w9ovw83Eaj5R+gtSvrZp9k4Hl/m9vYtrLDNrItkdkS9nhMy21FmRvhwKJkuOwwjKdMU05MJf21e8YhXkyd1p36BQbbv1G517C1E6hytqgYVC5azEpkQNPWe6cWjlnLAXoTdTKPzacvsjlofG7EskUxXUcWLzkz3KHxsqUzvRwO0kBiE6/npJ2wi27tz1wU4fGvmljoFtZYzbwvIY1+TTdSFMmEvW9zrfVE9PpiZnVHDYnKTkfkF98y2zPzMhCv6v77Mop/zSNS+5N7ElBc9zZAimeAj+9tsHI+fG3aut9pAZhdKI96u7/RlfsHTrJevyaWHzICeMvVqtvCngF76bPKFMgNaMoHZycmJsq3DthedOLShvppcx1Os54szrEMkU/d1ea8if7iDtYuo1zDyMoefZkdgPbfzybC5WtiyDJPp4Z1m0ZPNzeWxvYBWT5mwIZmeYplq6XZ4s3Qk8jI9OT3fM0swNYoIO3HP9IgPQH7JLIHzZFeGvEzo2szWzqjVzcZfQia4XuBvs2f91qoi8jKbLUMBqTStHjKjcgehT06mxYjzbRTL1DXD42JaZljBMSFkQuRNVn1/m1V0yfQhizz84kCZ8DW8iz4ApXpr1OGr5qRkwpOJfzWxpGUGkKEP99Whh5IZT25zkXw1cSSebV42muEwLZk786LmAnAty6RlBnjfzsukfjTwiJ8N32qyhAZcm5jM/P9p0CYhcyLLbEBhV+TPeYbo2fAlc96GHepmcjIDcrUbWyZ5zig+OqkgyvfM3MVymbv1qfW2+uWxLbNH1MPZn8xWHUm4yAzoIRN2raj/AUxS5lhMSCaNyOxGZBL0khmSj3aPMgOmKnMkRCYiMn3aMvuwN5l9IIMYJFMzXZnCtBGZjBCZjBCZjBCZjBCZjBCZjBCZjBCZjBCZjBCZjBCZjBCZjBCZjBCZjBCZjBCZjBCZjBCZjBCZjHAyBRaITEZU1WtsCYfOj1X16gdsC4fNT9/8D5URZKz5NMwCAAAAAElFTkSuQmCC;" vertex="1" parent="1">
          <mxGeometry x="220" y="300" width="460" height="76" as="geometry" />
        </mxCell>
        <mxCell id="d72VBFYSwYj0vfxk-ziA-31" value="" style="shape=image;verticalLabelPosition=bottom;labelBackgroundColor=default;verticalAlign=top;aspect=fixed;imageAspect=0;image=data:image/png,iVBORw0KGgoAAAANSUhEUgAAALcAAAA+CAMAAABeD3q9AAAAAXNSR0IArs4c6QAAAARnQU1BAACxjwv8YQUAAABgUExURQAAAAAAAAAAAAAAAAAAAAAAAAAAAAAAAAAAAAAAAAAAAAAAAAAAAAAAAAAAAAAAAAAAAAAAAAAAAAAAAAAAAAAAAAAAAAAAAAAAAAAAAAAAAAAAAAAAAAAAAAAAAAAAAPpP6I0AAAAfdFJOUwAECAoVHSEoKy82PFhidHd8gIySoq+yv8XN0uHu9PkW4WGtAAAACXBIWXMAABcRAAAXEQHKJvM/AAABMElEQVRoQ+3X63LCIBCGYTzVQ3putWm1cv93KUTQXWDoRJdkynzPLwRNXhPFUQEAAADAoCY7/eiGCU/6zY0Ssoul0e5GE90sSWv09+w88i9JdRd6L9eT+2Ed3Zm0Grune3eTqN+5WxWAboMslnZXd4x3L57bg5k8tq8rNyOmYPfiy01an8Ll7OR9uzOLSj0c9PFl3R1x+WHGm/O0kGLdZm7rlg3zyD9ZxvXkfsi7iX7dDd8+pnvZC16w+3Jga7Ibsjv2P653VvZm2MOM9/k2WJ1FrjcRdRffT27ujrFuvn//iO/ff3QHeFogXFy+t110kd9LQrrbyr7gdvd1B7vEgN2xPp/vSro9s5WkCW8qTNR9+eLGKuseRTXdIbIa/40c6EuYUEk3AAAAAAAAAIxGqRO34V/CnFceYgAAAABJRU5ErkJggg==;" vertex="1" parent="1">
          <mxGeometry x="190" y="390" width="118.06" height="40" as="geometry" />
        </mxCell>
        <mxCell id="d72VBFYSwYj0vfxk-ziA-32" value="" style="shape=image;verticalLabelPosition=bottom;labelBackgroundColor=default;verticalAlign=top;aspect=fixed;imageAspect=0;image=data:image/png,iVBORw0KGgoAAAANSUhEUgAAAc4AAABMCAMAAADTN6flAAAAAXNSR0IArs4c6QAAAARnQU1BAACxjwv8YQUAAADVUExURQAAACtVijBQjzBUjy9Rji9Sjy9SkC9Sjy9Tjy9Sjy9SkC9Sjy9Sj0RUakhYbUxbcFBfc1poe2FugWVyhGh1h2l2h256i3J+jnJ+j3WBkXiDk3uGlnyHln6JmIWPnoiSoIuVo4+ZppOdqZegrJylsJ6msaGptKevuamxu6+1v7C3wLK5wrW7xLe9xbrAyL3Dyr7Dy8TJ0MrP1czQ1s7S2NPW29TY3dba3tfa39zf49/i5eHk5+Tm6ebo6+fp7Onr7uzu8O/w8vT19vf4+fn5+vz8/P///9/bE8gAAAAMdFJOUwAYMEBon6evz9/n7zhUPkIAAAAJcEhZcwAAFxEAABcRAcom8z8AAAe9SURBVHhe7ZppdxM3FIbTnS5jnAQITWkTYhoKadJAk5YWXLN4+P8/qe/VerWNNLbDiXX0fMiZRdbo3kebx9nZ+eyrHxo18PXnO+AbddbYdu6QTnXc2H6azqrQOj82tp2msyqazqpoOqui6ayKprMqms6qaDqroumsiqazKprOqmg6q6LprIqmsyqazqpoOqui6ayKprMqms6qGKnzurv3QR1uhOXu5JU6HOK8O1VHAf2j7lIdurw+nHbd3vF/8ixZjBi8SY28+04drkdxtD+ro9EU6OS13w6d86nNb0IFLksmF/q8TKd51DWFLe4U6RzocYZYtNeqnQoqENNZUj34pDqXu6rRAmp5SufVIQoc/KvO/GDyOnF1coGWLk46eZsVO5eP16ABm9A5CxyURXvrdM7KngRKdfZPVBFd8Wid591d1RdwRGVvWicK+pkp77weEZ2R6qMM6Zxj8WFQTGN1Lk5Qx8ELdSbhQcUDnHWTpx+EVFVzuc75lFLBLuKQPusVc+E3V9RJfSSahny0emBDv2xFRCeNYbf9/aNYozaiM3i65qWqYZ8/ORsg2q7jUnc9ndf6OnA9qczzamVybljny27yx7STy7RLgU6lb0CnMOF9dj6NjNchnQpee0QnHhVtJLDrAv9UNkDTP5BMeeTpxFAw564nNVPw4Su0eMVUffrprk4DPlemk+aRS0rEcZjgMTrV3UDnxbS79552A+pcEpsV8zoREc9NoHMmA49Ai8c+lrCrh85ElAuQXbtWj3Z1Ur2mSWgeIXXoHsurlclxiun6dLE1dWIOEvXA5767roBctEAl1dz1dFL60E+ozxyZzSHgfVaT10kD3SQz1Imtxt/TSD8BGJw6u6xHZANkz9C3XZ0I97GJmHsyWpgfHNJneTFTn66eFbeP0lPLsM63V9g7d0eywZTxydGf6quuJBctUAEbPVzn27P7ckwA8rr/3NYeWeWyOhHqL3Y2DXSiM19S5DGfZumjAiZf1D/MSSxAFo3Os6OTVk50kGN5xlXowUwfSO9sgXrE+jrFWN7/R51h60dfsJws56IFak4JdS5FH2Qj/iXcdt2PqjXzaVBdVucMArHTNF4cndQdaULHdBNZNuij8ggxWR/Ik4k3rtOWnclc8EsyP/grK+cqbHfF1eT3TmB0ygQmdKKMuDOgc7m799QZjB/73w+d0rlogdGp0mX783x68FylULH47YGpA42zaZFkdPYz6tz42/0qqnV1orOoupFdb6EGjk4TEy7bSvI6xTG7hJ4jjsUTUQ1TIUVLcFkSfSsU6iREq8bpzJOJlvYBLpdMZ4ZzxwYxrHPxUPnCpEJfBbnO/gyLqlo0cEbLhtdRRVcQuF1UtJmduBtfm1Dgj84FEm9nWbrKPNm5lhh6Z/vpdOaiDXWe6tbl4V/YJEM6aabS5a+QGzTD6BTTurOPg3rPi5FI6TItRJd6Zs7iOk1ZLUHnmCoyrvszEquLADsbhLBiINRpbo7Z2WI6iGOznI02QrFO1GeyIRnSSfMENhSy9v7sADHZ0TmfOrtmYnHivC4QradCr0k0C+nUTjqxyZbNAPq2GTLLQ/+bgFWBo8I04BGipN583JzOfLTrEEY8pHN5KNYd3lnctVPCJ0cXk5rJfVOHmO/NpB8LkF2Lf+9MEPbVJAM6XYZ1cuJDKh/tANnegtZ5OoZ0KlbXiVvy8X+ZbiS3Kybz0QCzb4UwVdDC2HUPjthg9XTqLxoGZkyFkdcpWF1nSbQgaKqsKj/4g+XlZnViP4KHH38wAWlBCEAkMBqgTAJIvLOlbZfBbqhX0SmjSejUjVtZZ1G0IKGTE0/yp9apMILMZld9lY0HOPyLCpLUqVcvb87wvVrf8nS6uMZKdUYvl1MWbUCsZ9wqnfrVzBM+7dNhIkA9/HTFziOQJLYJs6+eCkcn2+soThM6UUM2MkOYheJow6YW6kS1K+l880Z9apROjEl5BwfUwN6+XUJoD6mqVIAD/43gjxnzwwKC42lYWyeuOl9khwleoI6Idg2dXsm0TorG4+47rTO/SgMknl7c9PSrp0jX8pDf/QmpKp5+uE43x3bycKeeWM9LENeJis2eNAsS4kdSHq3aaA8R1RkuL6N0Tl6N0ok2aFLNXUlnYnQiK7yydXWKBQJjjlWCeCJJJVDDXn4ob1rnuLdCEUbkiNBrYOT9vGQFnUhxfO30RK+ns38m6sUdVktS5wJz6Xs+ucbZtM5w8rhZnWoNtD8g+ayik6aN2M7WW7/W0mleVuOW/SqU0Elvr/Es2okn+61gwzrRNv/iDevMsYrO1PdOah2b74L9RXou9HT29DuxiRMOzW8Ly90gqT39fq0aQZ87eJFOUFqnTzD3x3SaH0gt26gTOYy9FRJabLmVddKKzzuJ+G1BDp/51Msz5neyrXMidn3pB21YZ+SfhbZTZ4pIfy3BG50z/z9+9G8LkX+GvPb/7fT1ia/cUhhtjEgGYsGO1Hnbif132+aY22/Ct4BYrJXpLHq9Wgfmf1E4lelEkNlNYh2M/y/4xtbRdFZF01kVTWdVNJ1V0XRWRdNZFU1nVTSdVdF0VkXTWRVNZ1U0nVXRdFZF01kVTWdVNJ1V0XRWBdfZqIKmsypI5x113Nh2viOdX3yrzhrbzfdf7uz8Dxu2bDwBExoKAAAAAElFTkSuQmCC;" vertex="1" parent="1">
          <mxGeometry x="218" y="440" width="462" height="76" as="geometry" />
        </mxCell>
        <mxCell id="d72VBFYSwYj0vfxk-ziA-33" value="" style="shape=image;verticalLabelPosition=bottom;labelBackgroundColor=default;verticalAlign=top;aspect=fixed;imageAspect=0;image=data:image/png,iVBORw0KGgoAAAANSUhEUgAAAOQAAAA+CAMAAAAMLEf2AAAAAXNSR0IArs4c6QAAAARnQU1BAACxjwv8YQUAAACEUExURQAAAAAAAAAAAAAAAAAAAAAAAAAAAAAAAAAAAAAAAAAAAAAAAAAAAAAAAAAAAAAAAAAAAAAAAAAAAAAAAAAAAAAAAAAAAAAAAAAAAAAAAAAAAAAAAAAAAAAAAAAAAAAAAAAAAAAAAAAAAAAAAAAAAAAAAAAAAAAAAAAAAAAAAAAAAAAAAPyqbrAAAAArdFJOUwAECAoVGR0gISQoKy82PFhdYmhrdHd8gIaMjZKdoq+yv8DFzM3S1+Hu9PkD+DMfAAAACXBIWXMAABcRAAAXEQHKJvM/AAACHklEQVRoQ+2XbUOCMBCAwYrMyqKyF60sepHY//9/3dgBtw0nyGt5z5cmw9s9brstj2EYhmEYhmGYv4e/FlfYLCEUD9gqwdm5lWn8eYRNiPCKrTL2i18GlZwLQvqUjDMXWXLZV8qS2J2YQzJYxUIkL+f4cV/JItOsOSLJEEcWz+qFriQdHo0lpzBNFAinST6C3annndzE+HRkkpMNJk75OcZeZIckLCNMBF7c+iNWYUjJEqjkshgqVEONTLIyweoD9JP3WxWKSE42ySU2oZ3+QINI2uhJBHeRXJFJdJ/VRwMfth2SYPhcchoXM++vU+ERSgZv+FCSHwMaoUgWUFo8b7YSqNGNJKGupKMzrRbJ4iKNOIPjrlh7BZh7itqBXS1XQpuS8OwVuwH4lL1MKJPM8+ix8BDqSc71YkrnpWAJk30Gf2Gus+UqUXFhcEyk6yOEUFcyDyyhk1bgrzA2FJ5r+YAeIdK4j8uATQ3JCjMpK448QkSk6o8uKS0VnV7rnDinWYbZuScVJAVDsp8LOqCpSMhMEizJKtVV4ZA0GEDSRk9COye/7HNSv7p+RxH8NzKQpIFzHLNz9hSlAuU3Hvt+250koW1JSb3EDElyVEqGkTRqZnNJg5YkbersyUOUzNBLCsF6296XruXaHpZkXplsDllyf9yFpz0OU9KE9NqrrWFSlqQJTa0BhyjZL4YkwzAMwzAMwzAMwzAMw/xHPO8X0JfG19D9WSEAAAAASUVORK5CYII=;" vertex="1" parent="1">
          <mxGeometry x="190" y="530" width="147.1" height="40" as="geometry" />
        </mxCell>
        <mxCell id="d72VBFYSwYj0vfxk-ziA-34" value="" style="shape=image;verticalLabelPosition=bottom;labelBackgroundColor=default;verticalAlign=top;aspect=fixed;imageAspect=0;image=data:image/png,iVBORw0KGgoAAAANSUhEUgAAAcwAAABNCAMAAAAcnqR9AAAAAXNSR0IArs4c6QAAAARnQU1BAACxjwv8YQUAAACrUExURQAAACtVijBQjzBUjy9Rji9Sjy9SkC9Sjy9Tjy9Sjy9SkC9Sjy9Sj0RUakhYbUxbcFBfc1poe2FugWVyhGh1h2l2h256i3J+jnJ+j3yHln6JmIiSoIuVo5OdqZegrJihrZylsKGptKSrtqevuamxu7C3wLK5wre9xbrAyL7Dy9PW29fa39zf49/i5eHk5+Tm6ebo6+fp7Onr7uzu8O/w8vf4+fn5+vz8/P///2RBZ9oAAAAMdFJOUwAYMEBon6evz9/n7zhUPkIAAAAJcEhZcwAAFxEAABcRAcom8z8AAAOlSURBVHhe7ZrpdtMwEEbNXhaHBEqghbTsgQAhBNrk/Z+MkT22RrKt2LGbxuPv/qm8RNLR7YyW4yi68+AZ0MDDu1H0iMug75xEEZdA/4FMRaQyt6DvQKYiIFMRkKkIyFQEZCoCMhUBmYqATEVApiIgUxGQqQjIVARkKgIyFQGZioBMRUCmIiBTEZCpiCYyN2fxdy6WMI8/cKmE4MMarManV1ykus65VEbblvrMvjIXsSC5K0ZxEWdDn/2kbIibDHtA5no2juPR2198CZllMq2RrHiUMufch/hd+gJk7iMz4KtDmSsKOwlV7Mh8Txb/bLd/v475LmQeUOb1hLVInv/jp4LV2NjZIZMSBHeJXnRa2pyVVaqbo5V5PamSIWVe2EbnaaN5SzIzD4SDy6yL0LSevSLho9df0kqFzOvJ6AcXM/u2JVHDQLghmUXcgV1/npr8OZp+zFahHjauNjQtMiNuKJe5Gtvw3ZwlYm035MNhcCsy12/4piHfVEhEU/N49ImWONvtchazrnoyKTRtPh4EIZmCpjIDD40C8vMzqXFJm0SbKS2LfBplRwlp4qybZqmdsqoVcwsy6d45PyboKntZYIOqTGbeIzkv+gugpGrb6hAIycwHmYuZGYOjuplMG3UJMroysn2G4YLC+Df9pSjO0qwhbYG6wS/6WxMD+x0MtyLTGWIZehnS92bGrdAC6Ju5IbcmdBE4NFiUpnC97CuzSAOZOyPzwvG9TLYm8TRdB7kyjc2UkuM82tPaiwHQnUxBMGxNNTvmTPMGFxnRGU9m6KC9WI9uWsh0lBnyUQzL3L2aLUZUQKaHJ7Pwj6KZG5FZxJHp7jNfFveZViZ5F7yYTsenV/VleulaPS1keri+PPyHy8tpoqf8BMjKLJ7kQmY1IZmCrmUaqn8QXrh4Mr0jWMjsXqa3Ru1SpkdAJubMaprMma1kUkP1V6FhmfXrUcCBZGa4CxqB+7aTHovzZijNShpFuAJayQzksHYynaOb/WXiBKiaDmTWhPxVz87hBZAEZ7PVHE4mGaqe7GrLpP4OKst2OmfKp8Xc2GhcvfNbh4JMn6wbg/vU4EhlhoKqtsxAAtZJC5k3SiCqPJmV4Bugo6F9WA0uMI9XZvV3szXBd7NHRPpF+97gi3bQayBTEZCpCMhUBGQqAjIVAZmKgExFQKYiIFMRkKkIyFQEZCoCMhUBmYqATEVApiIgUxFWJlABZCoiik64BPrOkyi695jLoN88vf8fyhmC1ofCS8gAAAAASUVORK5CYII=;" vertex="1" parent="1">
          <mxGeometry x="219" y="580" width="460" height="77" as="geometry" />
        </mxCell>
        <mxCell id="d72VBFYSwYj0vfxk-ziA-35" value="" style="shape=image;verticalLabelPosition=bottom;labelBackgroundColor=default;verticalAlign=top;aspect=fixed;imageAspect=0;image=data:image/png,iVBORw0KGgoAAAANSUhEUgAAAOQAAAA+CAMAAAAMLEf2AAAAAXNSR0IArs4c6QAAAARnQU1BAACxjwv8YQUAAABOUExURQAAAAAAAAAAAAAAAAAAAAAAAAAAAAAAAAAAAAAAAAAAAAAAAAAAAAAAAAAAAAAAAAAAAAAAAAAAAAAAAAAAAAAAAAAAAAAAAAAAAAAAAMSiplkAAAAZdFJOUwAECAoVISs2PEJYYneAho2vsrjAzeHu9Pk+Gu3wAAAACXBIWXMAABcRAAAXEQHKJvM/AAAA90lEQVRoQ+3YSRKCMBBAURBxQsUJNPe/qBg6xKgVN266/W9DKDb8SoJgAQAAAEChxu1kZNhz5KxzqUslV7RZn4a7Py/kzGRkuZf7D2mZ5Vr3SiNbd9tWPlXaDEaunNv4QeNuSxnEyPIo0xzojGzdYRwMPePIXuSsk/l7zOl1/jimkdNlxVZxbkKvvcgmrFa/NP3utBgZi9pPkbIXJ/GaHmmkH1uPfJtJG77sSRsyT9e6lxX6St2zKPM7aSfyyxuPEcN8Zd5drch+hbx9T44rWp/c96SZyPw/A0nVy6liRBKpyB9Gjg/VCZGKPEcCAAAAAAAA+LmiuANLNic/wMDweAAAAABJRU5ErkJggg==;" vertex="1" parent="1">
          <mxGeometry x="190" y="670" width="147.1" height="40" as="geometry" />
        </mxCell>
        <mxCell id="d72VBFYSwYj0vfxk-ziA-37" value="" style="shape=image;verticalLabelPosition=bottom;labelBackgroundColor=default;verticalAlign=top;aspect=fixed;imageAspect=0;image=data:image/png,iVBORw0KGgoAAAANSUhEUgAAAcwAAABNCAMAAAAcnqR9AAAAAXNSR0IArs4c6QAAAARnQU1BAACxjwv8YQUAAADAUExURQAAACtVijBQjzBUjy9Rji9Sjy9SkC9Sjy9Tjy9Sjy9SkC9Sjy9Sj0RUakhYbUxbcFBfc1poe2FugWVyhGh1h2l2h256i3J+jnJ+j3WBkXiDk3yHln6JmIGMm4iSoIuVo5KbqJOdqZegrJihrZylsKGptKevua+1v7K5wrW7xLe9xbrAyL7Dy8TJ0MrP1czQ1s7S2NPW29fa39zf49/i5eHk5+Tm6ebo6+fp7Onr7uzu8O/w8vf4+fn5+vz8/P///7SZ09YAAAAMdFJOUwAYMEBon6evz9/n7zhUPkIAAAAJcEhZcwAAFxEAABcRAcom8z8AAAR2SURBVHhe7ZmLVtNAEEDjGx+pxWKpgFWqIFRAKkItSvL/f+XM7qT7SLJJSgQynXsOh222eTA3szu7RNGjZ28EDjx/HEUvqC10nY0oopbQfUQmI7TMVOg6IpMRIpMRIpMRIpMRIpMRIpMRIpMRIpMRIpMRIpMRIpMRIpMRIpMRIpMRIpMRIpMRIpMRIpMRIpMRTWQmu72f1CxgGh9Qqz6X+/047o1/0cfgJbzOZDc+oWZ6sxl6sHTef/uHmrypkOmEyZY5jQ06VL6Jyy9D1Tv8fEpHfJKv6gsAnWldwrr+1l86soJM5VFkalaWOR9RJ9L7TkddJnHv8HeaXoNTfWpbMs1nkWkRkJmF9mazQOYMDB5eoYXk6giG0mXcLWZxdrms5flSzNqXeX20A48U97YP9ZXZ0IZMnUDLwRKAY3smUMmEktdlYk6YxHv4q0wmpanuBIsuJ81kLvbpPGTMSmeFTMgwE9/6Mr1c8IOtsA9S+t2FzDkk5fgH3u36fAemiKz44kCFzEk2IyL1h9mWZapGUSfRQCa8elvG32KUXZ0FYZnz/tY3PQIi9WXWGWbDMisLIJsGMqfuo8CDFk3nHSUoE4sM+MmC2LQAukALyWVZARScMytkJkfvsYK50J8ayLRuqvA/d5qQTPAIMYaX95MOZwOZ3tKkcKUZrGanZkAg7OufYTWK6CfzZc77AZnue5W/T4cJyMwmlJtR/E4tFOsXQEj1pkF4nWkFGWZuZNkJeT+ApEwg59W3fJnQf4KvIiKZCWCkaIDDsGCzmcxqwjtA5TJxRtYtKE0x0XyZMEYflMhczzkTAm0WYWfbGAFXpkGHxx4G67Io3ZsNDbPLAhcPYtOTmb18QG6YBXtrWM0mH3N7cPVk4kKuEDd7inBk4hnD4RBtqxNNp/U17YkGh0z/vD8Y0c1yMtXjjVVpdn2+X+ehOkSpzMa0INPCfln0SGgUWvOcrr48mdBvHsaXmS7sTQcrSxkQlkmT1ZKQDytfamMNmEjwEqbT+lqWmfaD4afMX4FM+KMGtDc7yo3l3eZ2MpPjHVjvQcU6LqtYwzSRaaiYM9WilbK3WKZ5K9ZJpos9ZyKmGgWcf3PRuGdwomlYTSZcnSQUVbNaHS01RWYZnkwsGsensFBM06vjkbMyaUMmLBY9lp2hdSbcmqZYvLTILMOTOXH+5TANTKjZJlGOnLB6Ms0OkF49WTLhDdOCoAHfF5mG0JyZpUCGiVGOlWT6OGlbtjcLCgd0KxiCD0SmRVima8iOzP+YMwOdVmbO1faGYvbhryuznUXTA6ZKZnl0Q5l5fzI9GsiEla3z93SQ1WVCpz1nntnvd+m46nG3MsOst8xgNSsy74EqmR5OVBqsM11pS1YugFxakcmA28gEnSU7QCLzXgjLfEisJFMhMoXuITIZITIZITIZITIZITIZITIZITIZITIZITIZITIZITIZITIZITIZITIZITIZITIZITIZITIZITIZITIZYWQKLBCZjIiiDWoJXedVFD15SW2h27x++g8ZjHrAKTtSKgAAAABJRU5ErkJggg==;" vertex="1" parent="1">
          <mxGeometry x="218" y="720" width="460" height="77" as="geometry" />
        </mxCell>
        <mxCell id="d72VBFYSwYj0vfxk-ziA-42" value="" style="shape=image;verticalLabelPosition=bottom;labelBackgroundColor=default;verticalAlign=top;aspect=fixed;imageAspect=0;image=data:image/png,iVBORw0KGgoAAAANSUhEUgAAANoAAAA+CAMAAAB6FvV9AAAAAXNSR0IArs4c6QAAAARnQU1BAACxjwv8YQUAAACBUExURQAAAAAAAAAAAAAAAAAAAAAAAAAAAAAAAAAAAAAAAAAAAAAAAAAAAAAAAAAAAAAAAAAAAAAAAAAAAAAAAAAAAAAAAAAAAAAAAAAAAAAAAAAAAAAAAAAAAAAAAAAAAAAAAAAAAAAAAAAAAAAAAAAAAAAAAAAAAAAAAAAAAAAAAAAAAG0VLWUAAAAqdFJOUwAECAoVGR0hKCsvNjxHUFhiaHN0d3yAhoyNkp2ir7Kzv8DFzM3S4e70+cfNOcMAAAAJcEhZcwAAFxEAABcRAcom8z8AAAHsSURBVGhD7ZjrcoIwEEbRKlovLfZmbdW2WC/w/g/YXbKBhIvCTBsc+p0/xhWGPdlkw+gBAAAAAAAAmtLbxvcyVMzi7xsZekG8kVEZQfwioyuAPAyiqQrVU8vi+pYytdZ0O6ymsGz+hVogxdSQSV21/kHuMTkN5FeHUCLZ1HZLbXRMs8yVME/zBdkyVB7uIDOZ3dpqRWw1/zE8UjAKn28l4pr+IdpxBcrUhouQAtF6or42UfM/Jcis25FbxRvaGzpna0HOedYT1OJrsCBplUdPE76iN36jMR8srgn4sVQCSctUo2hSr+FCdmN9NYpt5GeCvumLHTJXC5D223vycEONhjpXqoG6qq7azG6ItOidl42UVLY02N/Rp6E2OmbprZK01XmglC6pWWXqbV2r+fSipdcN7SvO5tfUWq4a1yydXP+DkzHUaKhz9Q9JtLJDFtTo3pb32vJBBimGGmd/ro0YFNSuokPmMNW4qoKadFOtiKVmn2v7ds41OyNLzRsud5RY9MUNhmii5nnjVz7v47i9t5FzaoTZ65qpMWUxd1x4+hm1XN+DmkMqnp61ECJkToPzahpqjuU4b5MValZzT4imHVEro57a9dBptRzVf2IU1OSOlDZ7RgkdVmtATg0AAAAAAAAAAAAAgL/C834AsnCAA8DwG1MAAAAASUVORK5CYII=;" vertex="1" parent="1">
          <mxGeometry x="190" y="810" width="140.65" height="40" as="geometry" />
        </mxCell>
        <mxCell id="d72VBFYSwYj0vfxk-ziA-43" value="" style="shape=image;verticalLabelPosition=bottom;labelBackgroundColor=default;verticalAlign=top;aspect=fixed;imageAspect=0;image=data:image/png,iVBORw0KGgoAAAANSUhEUgAAAcwAAABMCAMAAADXwnfYAAAAAXNSR0IArs4c6QAAAARnQU1BAACxjwv8YQUAAACKUExURQAAACtVijBQjzBUjy9Rji9Sjy9SkC9Sjy9Tjy9Sjy9SkC9Sjy9Sj0RUakhYbUxbcFBfc1poe2FugWVyhGh1h2l2h3J+j3yHln6JmIuVo5egrKGptKevubK5wrW7xLe9xb7Dy8TJ0M7S2NPW29TY3dfa39/i5ebo6+nr7u/w8vf4+fn5+vz8/P///8YH1QwAAAAMdFJOUwAYMEBon6evz9/n7zhUPkIAAAAJcEhZcwAAFxEAABcRAcom8z8AAAKgSURBVHhe7ZrZbtswEEXZPV2YON231F3SJk3t//+9jiRKw9AcAwSYALpzz4PD0YXngYcRaVshPHjyiiDw9GEIz9KYrJ2TENKIrB/KBGKSuSdrhzKBoEwgKBMIygSCMoGgTCAoEwjKBIIygaBMICgTCMoEgjKBoEwgKBMIygSCMoGgTCAoEwjKBIIygaBMICgTiCMydxfvYnz99SaVI1ebj2lUzyfKpLVW+nXygC3z+jyOnP1JF4Tdh7jIrOUTZdJaK/06ucCUKd4Sb3Xdy7VZZi2fKJPWWunXyQemzG2Mby73+5+bGL+kS9fvZZpmmZU8USattdKvkw8smbLIz/4Og3/n87K/kDlaZB7mM2XSWiv9OjnBknm1mRf3Np7+lj8yU/H0ctkzD/KFMmmtlX6dnGDJ/LVMR5oikfnpRl6SzIN8oUxaa6VfJydYMrfpjjXes4aJ2X2TE6LKPMgXyqS1Vvp1coIl83M+MfOhJ5NZzwfKpLVW+nVygi1zPkKowNsya/lAmbTWSr9OTqBMICgTCFtmbf/RSbL3p9ad7T46OcGSWT8Zqswil5cR+WzQeua8s07+sGTe+sz2fRrlMos8U1C+s7Hu18kflkyZjrS2829TVGY9HyiT1lrp18kJlkzRNt2z5D9lPlbkMuv5QJm01kq/Tk6wZMrijqc/yl8gZLrmg0U1HymT1lrp18kHpkxZ3YlskWcyq/lImbTWSr9OPjBlDjvQSP6rfSazmk+USWut9OvkAltm7XmaXOaR521an9S5j04eOCKTrA3KBIIygaBMICgTCMoEgjKBoEwgKBMIygSCMoGgTCAoEwjKBIIygaBMICgTCMoEgjKBoEwgKBMIygSCMoFQmQQCygQihJM0ImvnRQiPnqcxWTcvH/8Ho30qSZxeyN4AAAAASUVORK5CYII=;" vertex="1" parent="1">
          <mxGeometry x="218" y="850" width="460" height="76" as="geometry" />
        </mxCell>
        <mxCell id="d72VBFYSwYj0vfxk-ziA-44" value="" style="shape=image;verticalLabelPosition=bottom;labelBackgroundColor=default;verticalAlign=top;aspect=fixed;imageAspect=0;image=data:image/png,iVBORw0KGgoAAAANSUhEUgAAANoAAAA+CAMAAAB6FvV9AAAAAXNSR0IArs4c6QAAAARnQU1BAACxjwv8YQUAAABgUExURQAAAAAAAAAAAAAAAAAAAAAAAAAAAAAAAAAAAAAAAAAAAAAAAAAAAAAAAAAAAAAAAAAAAAAAAAAAAAAAAAAAAAAAAAAAAAAAAAAAAAAAAAAAAAAAAAAAAAAAAAAAAAAAAPpP6I0AAAAfdFJOUwAECAoVHiErNjxCR1hdYm13gIaNkp6vsrjAzeHu9Pl2Sxo2AAAACXBIWXMAABcRAAAXEQHKJvM/AAABWElEQVRoQ+2X2XLCMAxFE+hemi7unoL//y+RLHkZ3DLx8IDquecFxXEy94yS2AwAAAAAAACAZib/rFXN+OE3WtYcPWmCntTuPr33X9d6VKjd0njinUeK9E7HBT5rTm180XRRqB8153dP6yCoRqXa91rLqVITXJpsT406I3kmv7vRohM1J5lDMKl6UVvN2isW2V7wby9qRfpo2aJGx9p0wpiaRmZisha11Zyn2FPLD5RrV6OPUHqgbauFukWNF7d0g666Rs/jW55jTu2Ud23y28s5jRhTK9K3fyGpaRvWC2uGObWT1jXH58lPG29MjeLlYFItVtOt2dWPfwjH1tQomORp3kPe592nuFlTo7Yd2fkXHKqRUJyn15pT42CBGHSZ2mOxoPEtaNie2t//smty+vFVXjBhstm1Q5ap/QLUzgjUaqB2RqBWY18NAAAAAAAAAAAAAPwfhmEPw2U6hAmYqSAAAAAASUVORK5CYII=;" vertex="1" parent="1">
          <mxGeometry x="190" y="930" width="140.65" height="40" as="geometry" />
        </mxCell>
        <mxCell id="d72VBFYSwYj0vfxk-ziA-45" value="" style="shape=image;verticalLabelPosition=bottom;labelBackgroundColor=default;verticalAlign=top;aspect=fixed;imageAspect=0;image=data:image/png,iVBORw0KGgoAAAANSUhEUgAAAcwAAABMCAMAAADXwnfYAAAAAXNSR0IArs4c6QAAAARnQU1BAACxjwv8YQUAAAC9UExURQAAACtVijBQjzBUjy9Rji9Sjy9SkC9Sjy9Tjy9Sjy9SkC9Sjy9Sj0RUakhYbUxbcFBfc1poe2VyhGh1h2l2h256i3J+jnJ+j3WBkXiDk3yHln6JmIiSoIuVo5KbqJOdqZegrJihrZylsKGptKSrtqevuaqxu7K5wre9xbrAyL7Dy8TJ0MrP1czQ1s7S2NPW29fa39zf49/i5eHk5+Tm6ebo6+fp7Onr7uzu8O/w8vHy8/f4+fn5+vz8/P///28usmIAAAAMdFJOUwAYMEBon6evz9/n7zhUPkIAAAAJcEhZcwAAFxEAABcRAcom8z8AAAS5SURBVHhe7ZlrW9MwFIDrHS8tG1eBKcicTFQGwhzKyv//WZ4kp82laZZ18NCenfcLWdqkzXlzLUny7NUHhgKvnyfJG0wzXWcjSTDFdB+WSQgl857pOiyTECyTECyTECyTECyTECyTECyTECyTECyTECyTECyTECyTECyTECyTECyTECyTECyTECyTECyTEEvIzA/Tc0z6GKdHmGpK+AHz/uZfTFZZ8G4Bpr1AtR1jBZnXx700zQZX+NOVef1lNxXsfv6BOR6sOmuNTNLtO0em/iVtGEUn8qk2/mplybWQOcY4INmlE+v8GK+kgzuZYcuc7uNVQfYdcyvUyZz3sagU8aAy531oi4RlIvAjG4HF/KwnIg1YMiGi2ehG5Oc3cIcVTZNHkFly4p/3F8i8PTuA902zPdG6jlErs4oVsEm6+VulZn2VbcoEF0c6FvlJagdMUy/TLNFI5rTnf2pQ5qycbwCccrpDQ5mQHmISLMqhacp0uruOn0sDmSDJILuskQk5u96hGZIp6h78Eq25vThIy/7aFUIyx0pY0XozYKYeDEcjmWIIw59ynXswmTAbHMFEW/Y4TUAmvM229jfbV720OzyOzOhpFiyKSx6ZmCFfAS/7K/HKnB0KEZD7qaIjIHNsPwJewu4hbaehTEiXnd4zzYrwZ6MrkZ1fBzZA+WG2o4sZD1hNptiVSYv5aXUnHZDpjmTvyG4xYZkyzj6ZEF8dEpVtyXSOJnUnTegH/3T3t2Sa5ioboPxsB2pVo64iU5x/S4U/If3VWvqmvYBM3UCB3aT2EyVTNdeSCT+y0R+xk/ceTYCIjwYyrtAtsNpombCaSaQVW+b8UOQbx4r8VKyx27o2GObn4n4BlFy7kamaiwFQ6oyPBrgsLd+NYS4VwRoX4yhWJpTbupLrorDpjMxpb8/pPPnFQTEWBXCAHtbIpL1mBmQu/Jy3EBhfqgSEV61wkTJxkRYjBypwZC5CtAKLy5KmTLBHeDfrygwFrJBpHx0MzOEBwGpWxAqSW/CISJn6NrShqo+UOe1t7eObVGTKugZy33Z7ATOP88atJyRzovQUzY3s/ZEyYTjq08vsQFyzZGIhWcyWqbejsBm+LJ8XKRPWQdylq4ZZMsXUrTFGaTd4eJmR5MffMFXilwl5C2RCflF0YU8ShYsGeWSC6y38NlssAh0iLFPOg3Uyy5N+waqNj+wt+jZtI1qmXGZxl+qXWWxgl9/QPTlRMuWfZWSaA0tiBayOSJmxG6BiNjVR6vCoyTJrMRsfK9OOt/0A+OVQVAK11x9NNB6ZUFLeprrD2sh0/p0JDJeQ6WDvTQ2ayQx9NDCoyoS71DtCAq6xTE38mhkpM4xZSfBzXkGlcrhJnIAEsLYO10emhyVkNptmw9T1iHiZ99O9sobJxztbZuSJqtWsJBP3IVVaKtNhCZkwUVXqbx+PJbPGnkOLZIZhmYthmQ/KSjJdysuVabbGe2WbFQjsk8rsBiyTZT4Bwam7kUzJmspk2g7LJATLJATLJATLJATLJATLJATLJATLJATLJATLJATLJATLJATLJATLJATLJATLJATLJATLJATLJISWyZCAZRIiSTYwxXSdd0ny4i2mmW7z/uV/YTl3FvCfUikAAAAASUVORK5CYII=;" vertex="1" parent="1">
          <mxGeometry x="210" y="970" width="460" height="76" as="geometry" />
        </mxCell>
      </root>
    </mxGraphModel>
  </diagram>
</mxfile>
